inDegrees=yes
name=ik_MT_2026-09-03_16h27_01210270-001-000_orientations
DataType=double
version=3
OpenSimVersion=4.5
endheader
time	pelvis_tilt	pelvis_list	pelvis_rotation	pelvis_tx	pelvis_ty	pelvis_tz	hip_flexion_r	hip_adduction_r	hip_rotation_r	knee_angle_r	knee_angle_r_beta	ankle_angle_r	subtalar_angle_r	mtp_angle_r	hip_flexion_l	hip_adduction_l	hip_rotation_l	knee_angle_l	knee_angle_l_beta	ankle_angle_l	subtalar_angle_l	mtp_angle_l	lumbar_extension	lumbar_bending	lumbar_rotation	arm_flex_r	arm_add_r	arm_rot_r	elbow_flex_r	pro_sup_r	wrist_flex_r	wrist_dev_r	arm_flex_l	arm_add_l	arm_rot_l	elbow_flex_l	pro_sup_l	wrist_flex_l	wrist_dev_l
98.22499999999999	-6.295589060968441	-0.455100516891583	-1641.453620801082	0	0.9399999999999999	0	-62.08457399390652	-16.46483576508016	41.44194264526141	-64.01991532611879	-1.117358309288752	20.6199050312904	0	0	17.91863317286432	21.04625383261707	34.27725201136739	11.33104286580734	0.1977640056929521	-24.10210321847824	0	0	-0.7214169930486949	-0.7572946046994993	-42.55905460913412	18.92829901840835	-2.293340682633273	83.10049731177327	0.03745470879531387	45.00000025510327	0	0	2.364385355623655	-4.979008451460271	-13.03227655336718	1.048119915523779	45.00000025510327	0	0
98.25	-5.37205205477581	-1.25859119682637	-1641.650897144634	0	0.9399999999999999	0	-62.55132343133024	-17.20410698332537	42.14035597746432	-65.18427427002617	-1.13768020653498	21.30085975372274	0	0	19.92431516899992	20.89585277061859	35.19438097517858	13.54275745364137	0.2363657073650453	-20.89238419894767	0	0	1.320248761016234	-2.831580854548836	-43.18910278080655	16.95222993127781	-3.204117414420403	81.70192682951283	0.03673236747078319	45.0000002551078	0	0	1.160946985224446	-5.030071758578046	-12.5999782121842	1.205610265242414	45.0000002551078	0	0
98.27500000000001	-5.327097288952753	-1.678400066119942	-1641.819315991972	0	0.9399999999999999	0	-64.41541479974013	-18.24821416177015	43.587861077379	-67.16378704344899	-1.172229222016493	22.14239942094348	0	0	19.55449854464284	19.98220130274068	38.02192784322777	15.53758828192551	0.2711820733388891	-16.36172659459035	0	0	1.802539053074979	-4.19817042549494	-43.85279622000566	15.66661558896546	-4.452420321129103	80.0160508410903	0.03518514964640638	45.00000025511239	0	0	0.7265385590805408	-4.951166749679403	-12.14237706853878	1.3806460660476	45.00000025511239	0	0
98.3	-4.862904775333452	-1.977089605060033	-1642.518197123796	0	0.9399999999999999	0	-65.84748471755202	-19.74874287626335	46.0529419021868	-69.56515026019171	-1.214140916684936	22.42118711393258	0	0	19.15554429978271	18.69476188613007	39.00372312848381	17.1477396889742	0.2992845168475081	-13.437830316976	0	0	1.718069088184609	-4.248262935629739	-44.46755455988663	15.62483734602733	-5.725260071783165	78.59311821717856	0.03331886789110911	45.00000025511638	0	0	1.534824794232246	-4.83315806785382	-12.14401849286942	1.424111951316582	45.00000025511638	0	0
98.325	-4.899768341192329	-1.781798830538972	-1643.835553348332	0	0.9399999999999999	0	-67.63972954656295	-21.60712222771941	49.48833572654976	-72.20497326694668	-1.260214519822706	21.71989900108195	0	0	19.69915714085836	18.41588959750531	38.18546863178355	19.07526279321324	0.3329261414247413	-12.05043111399567	0	0	0.8207901318813547	-3.744736873108404	-44.53932609168196	15.81187633852774	-6.986388762315261	77.31925824769807	0.03122133577301588	45.00000025512086	0	0	2.627635228364286	-4.72795240359887	-12.24030629752087	1.377203964313666	45.00000025512086	0	0
98.34999999999999	-4.841653621010257	-1.720668648898098	-1645.684625432612	0	0.9399999999999999	0	-68.82211201412329	-23.16407609739531	52.81506470741917	-74.13886891021835	-1.29396736618777	19.79715578866715	0	0	20.30137759070304	17.39862833439538	38.39308428589256	19.81946328945881	0.3459148903792021	-10.65417927760857	0	0	0.2200539619203484	-3.422879657187949	-44.18660269205386	15.918488505741	-8.051768758093603	76.5779476436378	0.02926632987575816	45.00000025512503	0	0	3.427559160047426	-4.597794444456585	-12.41153844037919	1.455199259843848	45.00000025512503	0	0
98.375	-4.742619198405738	-1.988419812652045	-1647.776422865586	0	0.9399999999999999	0	-69.37342102234135	-23.45311438957899	55.04424209079914	-74.52170350936532	-1.300649090433438	16.94554927710308	0	0	20.42795410474825	16.34877291659903	36.37612401175332	19.66378218971619	0.3431977426055677	-9.952360016033827	0	0	-0.447103412512553	-3.051545407703023	-43.72475744863245	16.58905650298056	-8.831197289772483	76.64597383122511	0.0276104561110622	45.00000025512617	0	0	4.45984423068485	-4.494465132862866	-12.53847908723329	1.544173674223251	45.00000025512617	0	0
98.40000000000001	-5.015408484123983	-2.274719138821179	-1649.908880507398	0	0.9399999999999999	0	-70.09622245286137	-22.42696902971964	56.20492905605279	-73.65857798640076	-1.285584708199708	14.27318253636267	0	0	19.22779337445848	15.1363700802563	34.29689542422935	18.83763460004148	0.328778747058329	-9.012439588314612	0	0	-1.515002241240366	-2.816664392054749	-43.3411876421584	17.4536158446507	-9.221821812375017	77.45446131609268	0.02643374087080648	45.00000025512738	0	0	5.527607628024235	-4.581295251941595	-12.65594279795578	1.617142609578471	45.00000025512738	0	0
98.425	-5.219166000467372	-2.684815041284383	-1651.931148703507	0	0.9399999999999999	0	-70.81140788115768	-20.72555833185976	56.97133503494344	-72.69374125048677	-1.268745130413814	12.92204390831291	0	0	18.06363365264769	14.5360871149224	33.153936274453	18.34419542237941	0.3201666087497925	-7.767799673728454	0	0	-1.911478926524362	-3.193118165193655	-43.1369711716335	17.75449836364089	-9.382170012864046	78.65526682897568	0.02589579354913695	45.00000025512805	0	0	5.882705932470396	-4.888222468906647	-12.79681897212714	1.763197098328519	45.00000025512805	0	0
98.45	-5.562707689959251	-2.592533652252913	-1653.251556804977	0	0.9399999999999999	0	-72.62763640000267	-16.92190185746903	56.89380247612787	-70.52106200704547	-1.230824724026024	14.64305496486428	0	0	16.43662834515748	13.85957075320971	33.19111187803924	17.62634689946347	0.3076377884943315	-6.885010497609926	0	0	-2.57798400127966	-3.577594139853695	-43.4570351371804	17.90554349971124	-9.37267365678572	79.50134811757263	0.02598036301514452	45.00000025512888	0	0	5.971858935156494	-5.516268197081148	-12.61687520086246	1.956420265300814	45.00000025512888	0	0
98.47499999999999	-5.223226959413332	-2.529314908250087	-1654.18952095192	0	0.9399999999999999	0	-74.38325366607025	-13.08663027837237	56.87842307911776	-68.63959816812623	-1.197986985279671	17.57852958806313	0	0	15.48857939792316	12.72356908591343	33.14419369100906	16.93205447196518	0.2955200996628222	-5.988457074573172	0	0	-2.613752992632512	-3.599368815950704	-44.02134043487825	18.06735567105238	-9.38851292187694	80.00561223825528	0.02633636432104701	45.00000025512971	0	0	6.107841396296962	-6.08252029433098	-12.4107557107823	2.075292797104819	45.00000025512971	0	0
98.5	-4.234466540692496	-2.490599600061237	-1654.842708535051	0	0.9399999999999999	0	-75.06096704517468	-9.275578309494321	56.94509154226438	-66.78429909168923	-1.165605907786636	20.08513573680785	0	0	15.2376325659184	11.19384221826271	32.97139677276981	16.34050244052091	0.2851955690172588	-4.996171998102553	0	0	-2.311017596499998	-2.995536273998444	-44.60863610000207	18.49839967140619	-9.481680658419867	80.00424045345773	0.02683617181409626	45.00000025513059	0	0	6.670629703754438	-6.509745531483849	-12.0901928185276	2.016247578112293	45.00000025513059	0	0
98.52500000000001	-3.459838789717294	-2.14387283434947	-1655.604140600902	0	0.9399999999999999	0	-74.10543057749226	-4.03854725715988	55.18935730999278	-62.77274106666678	-1.095591012115193	21.45948307263901	0	0	14.73576136166284	9.686064215110207	32.85483841248433	15.93758215829455	0.278163283469344	-3.949917427686938	0	0	-2.536599616455377	-1.907668661874758	-45.16252921493255	19.23491193715951	-9.614166757689294	79.73277109624499	0.02739292471922666	45.00000025513174	0	0	7.564982248356579	-6.851032131762787	-11.97264173729363	1.850925994142736	45.00000025513174	0	0
98.55	-2.849919411084779	-1.698740918012781	-1656.720399223207	0	0.9399999999999999	0	-70.92483091442637	2.118211397733522	51.34857754221349	-56.97161693703032	-0.994342295736146	22.40791651884134	0	0	14.16459834730335	8.361854994446036	32.72265387860594	15.81728180041398	0.2760636461330005	-2.777389303852989	0	0	-2.894855025170553	-0.8784987818737519	-45.3263814530992	19.80229338738585	-9.705053816127545	79.10053248422844	0.02789335770575414	45.00000025513543	0	0	8.331184551538128	-7.109089363952318	-12.00840509244068	1.651415140030276	45.00000025513543	0	0
98.575	-2.462503655340608	-1.440017028857568	-1657.771568140495	0	0.9399999999999999	0	-67.40878963720203	7.053228332502568	46.56906545577073	-52.0302903867229	-0.9080998780170683	23.83357976849348	0	0	13.50473799285875	7.353283936932329	32.59791731031487	15.62214621044675	0.2726578876002507	-1.632204420484177	0	0	-3.131951254825351	-0.2098810340119886	-45.59595229797325	20.09039537393821	-9.77764349186848	78.3214024128084	0.02847862297499173	45.00000025513934	0	0	8.728514790103983	-7.26031261848773	-12.16482664114035	1.542595388820557	45.00000025513934	0	0
98.59999999999999	-2.216543882347247	-1.215735065840629	-1659.221017383035	0	0.9399999999999999	0	-65.25775821896569	9.637591210917059	43.41717049427291	-49.82530246307878	-0.8696155787827652	26.81063074977628	0	0	12.77421709663866	6.208269049323723	31.87622834982909	15.38811913765378	0.2685733446412089	-0.5077179049601576	0	0	-3.383295957873245	0.2354306836900306	-45.37133543567037	20.19553440787029	-9.845127979484214	77.53888053110956	0.02905718511106572	45.00000025514332	0	0	8.925888808753097	-7.387898029415903	-12.29293963627629	1.530723432631938	45.00000025514332	0	0
98.625	-1.952341957658415	-1.321824103457945	-1660.660589436524	0	0.9399999999999999	0	-63.8820746739961	10.75746965905905	42.05615875357117	-49.92315537629496	-0.8713234343010559	31.25018298820745	0	0	12.36711983171503	5.332650077397297	30.90220537266856	15.2225543633543	0.2656836942043618	0.613469425767155	0	0	-3.379278432575574	0.4649172822881087	-45.25669525241744	20.26392135034459	-9.837715133612251	77.13312308398564	0.02954766425575633	45.0000002551439	0	0	9.008381209638261	-7.469631463505555	-12.58631126816508	1.562430843131871	45.0000002551439	0	0
